<svg width="512" height="512" viewBox="0 0 512 512" fill="none" xmlns="http://www.w3.org/2000/svg">
  <rect width="512" height="512" rx="112" fill="url(#paint0_linear)"/>
  <path d="M160 140C160 128.954 168.954 120 180 120H332C343.046 120 352 128.954 352 140V372C352 383.046 343.046 392 332 392H180C168.954 392 160 383.046 160 372V140Z" fill="white" fill-opacity="0.2"/>
  <path d="M190 160H322V352H190V160Z" fill="white"/>
  <rect x="210" y="190" width="82" height="12" rx="6" fill="#6366F1"/>
  <rect x="210" y="220" width="60" height="12" rx="6" fill="#6366F1" fill-opacity="0.5"/>
  <rect x="210" y="250" width="82" height="12" rx="6" fill="#6366F1"/>
  <rect x="210" y="280" width="40" height="12" rx="6" fill="#6366F1" fill-opacity="0.5"/>
  <defs>
    <linearGradient id="paint0_linear" x1="0" y1="0" x2="512" y2="512" gradientUnits="userSpaceOnUse">
      <stop stop-color="#6366F1"/>
      <stop offset="1" stop-color="#4F46E5"/>
    </linearGradient>
  </defs>
</svg>
